<?xml version="1.0" standalone="no"?>
<!DOCTYPE svg PUBLIC "-//W3C//DTD SVG 20010904//EN"
 "http://www.w3.org/TR/2001/REC-SVG-20010904/DTD/svg10.dtd">
<svg version="1.0" xmlns="http://www.w3.org/2000/svg"
 width="260.000000pt" height="260.000000pt" viewBox="0 0 260.000000 260.000000"
 preserveAspectRatio="xMidYMid meet">
<metadata>
Created by potrace 1.14, written by Peter Selinger 2001-2017
</metadata>
<g transform="translate(0.000000,260.000000) scale(0.100000,-0.100000)"
fill="#000000" stroke="none">
<path d="M744 2326 c-15 -12 -19 -25 -17 -68 1 -29 8 -71 16 -94 l15 -41 -57
-17 c-87 -27 -214 -92 -309 -158 -84 -59 -298 -263 -321 -306 -11 -21 -9 -23
66 -67 1 0 -8 -32 -22 -71 -13 -38 -28 -92 -33 -121 -9 -54 -8 -228 2 -273 9
-40 49 -160 53 -157 1 2 5 25 9 53 3 27 7 58 8 69 5 36 39 145 46 150 4 3 13
-23 20 -58 6 -34 17 -68 23 -76 7 -8 11 -17 10 -20 -9 -21 59 -165 120 -255
149 -220 418 -420 712 -531 l70 -26 -40 33 c-37 31 -155 147 -200 198 -15 16
10 8 91 -34 62 -31 117 -56 122 -56 6 0 13 -6 15 -12 4 -10 6 -10 6 0 1 7 -22
47 -50 88 l-51 76 18 35 c52 95 158 188 249 217 94 29 178 29 154 0 -17 -20
-10 -23 36 -15 23 4 57 2 81 -5 22 -7 74 -15 115 -19 86 -8 89 -10 89 -36 0
-17 3 -18 20 -9 21 11 24 8 21 -23 -1 -9 1 -17 6 -17 17 0 86 42 117 71 17 16
36 29 43 29 7 0 36 24 65 53 57 56 110 143 105 174 -1 10 -18 43 -37 73 -23
35 -35 68 -35 90 -1 39 -23 100 -36 100 -5 0 -9 -6 -9 -13 0 -20 -50 -88 -60
-82 -5 3 -8 18 -6 34 3 32 -17 66 -33 56 -6 -3 -20 -23 -30 -43 -28 -54 -74
-94 -102 -90 -20 2 -24 9 -26 43 -3 62 16 116 52 152 39 39 55 42 55 8 0 -14
2 -25 5 -25 12 0 84 40 90 50 13 22 25 8 25 -30 0 -22 5 -40 10 -40 20 0 71
31 111 67 24 22 52 37 72 39 112 12 144 24 217 87 35 30 55 83 65 174 10 89
14 107 30 146 8 20 15 48 15 62 0 36 -45 78 -100 94 -194 58 -288 94 -358 139
-176 113 -275 145 -386 127 -27 -4 -96 -8 -153 -9 -96 -2 -107 0 -139 23 -24
17 -47 25 -72 24 -20 -1 -62 -2 -92 -3 -51 -2 -156 6 -190 15 -8 3 -33 7 -55
11 -22 3 -77 17 -122 30 -97 28 -103 29 -129 10z"/>
</g>
</svg>
