<?xml version="1.0" standalone="no"?>
<!DOCTYPE svg PUBLIC "-//W3C//DTD SVG 20010904//EN"
 "http://www.w3.org/TR/2001/REC-SVG-20010904/DTD/svg10.dtd">
<svg version="1.0" xmlns="http://www.w3.org/2000/svg"
 width="64.000000pt" height="64.000000pt" viewBox="0 0 64.000000 64.000000"
 preserveAspectRatio="xMidYMid meet">

<g transform="translate(0.000000,64.000000) scale(0.100000,-0.100000)"
fill="#000000" stroke="none">
<path d="M210 560 l0 -80 -80 0 -80 0 0 -173 c0 -134 3 -178 14 -193 13 -17
30 -19 198 -22 171 -3 186 -2 209 17 l24 19 0 242 c0 228 -1 242 -19 256 -15
10 -52 14 -143 14 l-123 0 0 -80z m178 -2 c7 -7 12 -26 12 -42 1 -17 7 -42 15
-56 19 -34 19 -76 -1 -84 -20 -8 -108 -8 -128 0 -20 8 -21 63 -2 90 8 10 12
29 9 42 -11 45 61 84 95 50z m-148 -162 c0 -17 -22 -26 -60 -26 -38 0 -60 9
-60 26 0 10 15 14 60 14 45 0 60 -4 60 -14z m185 -76 c0 -13 -25 -15 -152 -18
-124 -2 -153 0 -153 11 0 8 3 17 7 21 4 3 72 5 152 4 122 -3 146 -5 146 -18z
m1 -71 c13 -22 -22 -29 -148 -29 -134 0 -158 4 -158 26 0 11 28 14 149 14 99
0 152 -4 157 -11z m-1 -79 c0 -13 -25 -15 -152 -18 -124 -2 -153 0 -153 11 0
8 3 17 7 21 4 3 72 5 152 4 122 -3 146 -5 146 -18z"/>
<path d="M334 529 c-10 -17 13 -36 27 -22 12 12 4 33 -11 33 -5 0 -12 -5 -16
-11z"/>
<path d="M317 453 c-4 -3 -7 -15 -7 -25 0 -14 8 -18 40 -18 41 0 52 14 28 38
-13 13 -50 16 -61 5z"/>
<path d="M117 572 c-26 -26 -47 -51 -47 -55 0 -5 24 -7 53 -5 l52 3 3 53 c2
28 -1 52 -5 52 -5 0 -30 -22 -56 -48z"/>
<path d="M530 326 l0 -213 -26 -27 c-27 -26 -27 -26 -190 -26 -156 0 -164 -1
-164 -20 0 -34 32 -40 219 -40 168 0 182 1 201 20 19 19 20 33 20 251 0 238
-5 269 -40 269 -19 0 -20 -8 -20 -214z"/>
</g>
</svg>
